inDegrees=no
num_controls=7
num_derivatives=13
num_iterations=107
num_multipliers=7
num_parameters=0
num_slacks=7
num_states=26
objective=0.431181
objective_accelerations=0.049789
objective_balance=0.006707
objective_effort=0.030994
objective_height=0.342519
objective_ligament=0.001172
solver_duration=1362.156077
status=Solve_Succeeded
success=true
DataType=double
version=3
OpenSimVersion=4.5
endheader
time	/jointset/ground_pelvis/pelvis_tilt/value	/jointset/ground_pelvis/pelvis_tx/value	/jointset/ground_pelvis/pelvis_ty/value	/jointset/hip_l/hip_flexion_l/value	/jointset/hip_l/hip_adduction_l/value	/jointset/hip_l/hip_rotation_l/value	/jointset/back/lumbar_extension/value	/jointset/patellofemoral_l/patellar_flexion_l/value	/jointset/knee_l/knee_flexion_l/value	/jointset/knee_l/knee_adduction_l/value	/jointset/knee_l/knee_rotation_l/value	/jointset/ankle_l/ankle_angle_l/value	/jointset/subtalar_l/subtalar_angle_l/value	/jointset/ground_pelvis/pelvis_tilt/speed	/jointset/ground_pelvis/pelvis_tx/speed	/jointset/ground_pelvis/pelvis_ty/speed	/jointset/hip_l/hip_flexion_l/speed	/jointset/hip_l/hip_adduction_l/speed	/jointset/hip_l/hip_rotation_l/speed	/jointset/back/lumbar_extension/speed	/jointset/patellofemoral_l/patellar_flexion_l/speed	/jointset/knee_l/knee_flexion_l/speed	/jointset/knee_l/knee_adduction_l/speed	/jointset/knee_l/knee_rotation_l/speed	/jointset/ankle_l/ankle_angle_l/speed	/jointset/subtalar_l/subtalar_angle_l/speed	/forceset/tau_hip_flexion_l	/forceset/tau_hip_adduction_l	/forceset/tau_hip_rotation_l	/forceset/tau_knee_flexion_l	/forceset/tau_ankle_angle_l	/forceset/tau_subtalar_angle_l	/forceset/tau_lumbar_extension	lambda_cid13_p0	lambda_cid13_p1	lambda_cid13_p2	lambda_cid13_p3	lambda_cid13_p4	lambda_cid13_p5	lambda_cid14_p0	/jointset/ground_pelvis/pelvis_tilt/accel	/jointset/ground_pelvis/pelvis_tx/accel	/jointset/ground_pelvis/pelvis_ty/accel	/jointset/hip_l/hip_flexion_l/accel	/jointset/hip_l/hip_adduction_l/accel	/jointset/hip_l/hip_rotation_l/accel	/jointset/back/lumbar_extension/accel	/jointset/patellofemoral_l/patellar_flexion_l/accel	/jointset/knee_l/knee_flexion_l/accel	/jointset/knee_l/knee_adduction_l/accel	/jointset/knee_l/knee_rotation_l/accel	/jointset/ankle_l/ankle_angle_l/accel	/jointset/subtalar_l/subtalar_angle_l/accel	gamma_cid13_p0	gamma_cid13_p1	gamma_cid13_p2	gamma_cid13_p3	gamma_cid13_p4	gamma_cid13_p5	gamma_cid14_p0
0.5	-0.3273895337321472	-0.02761580901322593	0.7687652647569923	1.15207765766731	-0.3049044566509153	0.007989266403618562	-0.3209950083528337	0.8095471999108925	0.8095471999110048	-0.1730045362021667	0.1673105137714819	0.1662325961602974	-0.01872468728795429	-0.4199477922421688	-0.1596487293380462	-0.501501554852688	2.092391879850863	0.0102626569969788	0.7005980288435956	-0.6297568952361524	2.102247881191503	2.102247881190781	-0.006293824331087563	0.04109884433496044	0.5533547608075732	0.1030535975218909	-0.1816328341846818	0.02116371812744695	-0.02658592047268741	-0.2601051657133711	0.1026682104357153	0.03583329452416116	0.1824438926841377	-5.139434288272036	-17.33177548499541	5.409669428571505	-2.633795478173703	-603.879976744593	-57.74462242506615	-20.94784728875872	0.4624828520647351	0.5478872512011417	-0.438491073319014	-1.256882283899101	0.678130911788325	-0.3569222434776012	1.5767761341513	-1.30576012245484	-1.305760122454838	0.04032461829802834	-0.0798195026402191	-0.5302637788430156	0.7048414638237163	-4.268226731994743e-07	-4.666670685423317e-07	2.619164432417712e-06	2.847496632328567e-07	-5.093511891464441e-07	-3.280811015862133e-07	-4.108896841991141e-07
0.51	-0.331565001672947	-0.02918468672640126	0.7637294183436893	1.17293514107443	-0.304769382602318	0.01497868278233299	-0.3272133038499956	0.8305008436834502	0.8305008436835498	-0.1730690549940005	0.1677170104674514	0.1717382902166679	-0.01766061246063894	-0.4150947537493634	-0.1541111221122832	-0.5055581929397877	2.078819521691186	0.01672922983550879	0.6972041837058469	-0.6138218801324065	2.088188574289216	2.088188574288965	-0.006602205762256147	0.04018858065566101	0.5476985920539655	0.1097418817092121	-0.1878092657928962	0.02155817886936445	-0.02665284563282232	-0.263030905270752	0.1011077605367594	0.03593555626009547	0.1876539140093701	-5.871702198456862	-17.14476132885802	5.26196081469831	-2.403225291698167	-608.2607397579696	-57.44111189289224	-19.6652113156518	0.5043362481491889	0.5591073390150723	-0.3729179545845836	-1.450251343417252	0.6271390602952758	-0.3431304593105918	1.61391280806865	-1.499781091915023	-1.49978109184439	-0.06523398441187066	-0.09892134368783802	-0.5960964812175927	0.647665458133806	-3.954516640106607e-07	-3.688729085069707e-07	2.504798920400659e-06	2.791872148149171e-07	-4.740019941730399e-07	-2.345640879394951e-07	-3.864332877039708e-07
0.52	-0.3356904148487673	-0.03069770639116873	0.7586562719938795	1.193648333147671	-0.3045703991072543	0.02193165774759558	-0.3332698394742032	0.8513051413634239	0.8513051413635173	-0.1731364204922614	0.1681139462180087	0.1771848619739829	-0.01653028607906087	-0.4099368392461271	-0.1484771196564746	-0.5089615421540579	2.063533613074905	0.02304454629043458	0.6933097461526152	-0.5974049206453643	2.072378662674949	2.072378662675169	-0.006863165616926675	0.03918665525183921	0.5415303009964396	0.1163039083744332	-0.1939856974010994	0.02195263961129128	-0.02671977079295051	-0.2659566448281315	0.09954731063780585	0.03603781799604108	0.1928639353346114	-6.608985842639869	-16.9586214345038	5.1163952260619	-2.189186620865994	-612.7422459208076	-57.22105192109725	-18.381245683111	0.5234580541509544	0.5671662972102799	-0.307833298753115	-1.59959237521959	0.6478796350674857	-0.4570407265741882	1.67316501081053	-1.655881064851107	-1.6558810648511	0.04980893359764148	-0.09815184754469147	-0.6326882396266951	0.6795899594037038	-3.647483698232342e-07	-2.647178542255866e-07	2.393336067558479e-06	2.754936069372916e-07	-4.415947381901475e-07	-1.404623621595436e-07	-3.616818498750775e-07
0.53	-0.3397628604570713	-0.0321539519417386	0.7535523946131623	1.214200338202263	-0.3043089783081804	0.02884312719738229	-0.3391598429301271	0.8719427919199498	0.8719427919200949	-0.1732059586654245	0.1685005031596385	0.1825673300258558	-0.01533492451238455	-0.4045077173946103	-0.1427600325446531	-0.5116999474158374	2.046588986598935	0.02920239904179197	0.6888955735390944	-0.5805268482505392	2.054868784242899	2.05486878424295	-0.007046531424474654	0.03813082376416072	0.5348844713736642	0.1227318782218811	-0.1999889880311788	0.02217215514907031	-0.02673705109752164	-0.2690696115956552	0.09825157085698824	0.03595777598397921	0.1979247869296694	-7.268402579670184	-16.69850999139632	4.949404509382767	-2.000779936201476	-617.2472746944048	-56.91096480438598	-17.09899333340486	0.5592967025109266	0.5758283157718844	-0.2398310684106096	-1.783697761051583	0.5938275805125296	-0.4471952241559473	1.705466697159723	-1.840871154247942	-1.840871154273308	-0.05268106542999205	-0.1088474294029144	-0.6923342360796642	0.6186805912215091	-3.34807203774679e-07	-1.726131007978415e-07	2.277737604100392e-06	2.707732786322138e-07	-4.107657151020338e-07	-5.634747454080993e-08	-3.372508338872501e-07
0.54	-0.343779683356489	-0.03355265694166951	0.748424535794123	1.234574536996642	-0.3039871610845252	0.03570773698195258	-0.3448789979934344	0.8923968777077814	0.8923968777079772	-0.1732773848421614	0.1688765920603891	0.1878809789990055	-0.01407642722847251	-0.3988122974687366	-0.1369690095286807	-0.5137578298184309	2.027972361032329	0.03512383120685574	0.6839378131089769	-0.5632352421220652	2.035665708936211	2.035665708936092	-0.007240766331981543	0.03709304707554179	0.5277664852518206	0.1289310518215765	-0.2059922786612511	0.02239167068685264	-0.02675433140207884	-0.2721825783631799	0.09695583107617083	0.03587773397192125	0.2029856385247342	-7.933183496626815	-16.43842036934779	4.783516838560283	-1.826766315870501	-621.8548264629633	-56.67589532168466	-15.82290251880136	0.5767176690223796	0.5819534780404537	-0.1717287269159255	-1.933992193346859	0.6005955178087627	-0.5657582898935047	1.755871757540305	-1.994520439778633	-1.994520439778596	0.04763511360586153	-0.09454088773277897	-0.727119539440364	0.6338307098532102	-3.057092433265772e-07	-9.384059512305908e-08	2.157563571450237e-06	2.649170043222951e-07	-3.816828220251648e-07	1.671814532508675e-08	-3.131743271703893e-07
